# xmcd
#
# Track frame offsets: 
#        150
#        18271
#        36479
#        51546
#        68142
#        83100
#        99728
#        116473
#        132866
#        148762
#        162773
#        179161
#        194159
#        211078
#        225640
#        241559
#        257303
#        286451
#        301276
#        317690
#        346191
#
# Disc length: 4770 seconds
#
# Revision: 0
# Processed by: cddbd v1.5.2PL0 Copyright (c) Steve Scherf et al.
# Submitted via: ExactAudioCopy v1.0b3
#
DISCID=2f12a015
DTITLE=Various Artist - Dance Max 2004.02 - CD 2
DYEAR=1900
DGENRE=
TTITLE0=Scooter - Shinjuku
TTITLE1=Pulsedriver - Beat Bangs !!! (Single Version)
TTITLE2=Rank 1 - It's Up To You (Symsonic) (Radio Edit)
TTITLE3=Ayu - Depend On You (Svenson and Gielen Radio Edit)
TTITLE4=Starfield Feat. Nick Straker - A Walk In The Park (Radio Edit)
TTITLE5=Familiar Faces - Mad World (Single Version)
TTITLE6=Freddy Fader - Everybody Scream (Radio Edit)
TTITLE7=Gigi D'Agostino - Silence (Vision 4)
TTITLE8=Starsplash - Alive (Radio Edit)
TTITLE9=White Doves - Love Is A Battlefield (Radio Mix)
TTITLE10=Project Medusa Vs. Exor - Ecilpse (Donald and Giles Vocal Radio
TTITLE10=Edit)
TTITLE11=Moguai - Freaks (Radio Freaks)
TTITLE12=Starlovers - Boy (You Need To Know)
TTITLE13=Push - Electric Eclipse (Original Mix)
TTITLE14=Commander Tom - Are Am Eye 2.4 (Lazard Video Mix)
TTITLE15=Dickheadz - Wir Brauchen Bass (Single Edit)
TTITLE16=Moonbootica - We 1,2 Rock
TTITLE17=DJ Z-Man Vs. C.C.P. - Just 2 Nite
TTITLE18=2 Unlimited - Tribal Dance 2.4 (Revil O. Short Mix)
TTITLE19=Brooklyn Bounce - Funk U (Single Mix)
TTITLE20=Data-Track
EXTD=
EXTT0=
EXTT1=
EXTT2=
EXTT3=
EXTT4=
EXTT5=
EXTT6=
EXTT7=
EXTT8=
EXTT9=
EXTT10=
EXTT11=
EXTT12=
EXTT13=
EXTT14=
EXTT15=
EXTT16=
EXTT17=
EXTT18=
EXTT19=
EXTT20=
PLAYORDER=
